<svg xmlns="http://www.w3.org/2000/svg" viewBox="576.955 208.49 60.034 60.004" width="60.034" height="60.004">
  <g transform="matrix(1, 0, 0, 1, 574.980286, 206.494308)">
    <rect x="33" y="27" width="4" height="2" style="fill: orange;"></rect>
    <rect x="30" y="44" width="4" height="2" style="fill: orange;"></rect>
    <path d="M36.741,13.016a23.552,23.552,0,0,0,7.486,1.789,2.761,2.761,0,0,0,2.256-.722c1.038-1.273-.247-3.073-.669-3.664A9.59,9.59,0,0,0,43.17,7.853a5.2,5.2,0,0,0-.6-3.957C41.7,2.638,40.16,2,38,2a6.326,6.326,0,0,0-6,3.724A6.326,6.326,0,0,0,26,2c-2.16,0-3.7.638-4.573,1.9a5.2,5.2,0,0,0-.6,3.957,9.59,9.59,0,0,0-2.644,2.566c-.422.591-1.707,2.391-.669,3.664a2.76,2.76,0,0,0,2.256.722,23.556,23.556,0,0,0,7.487-1.789A3.611,3.611,0,0,1,30.87,16H29a7.008,7.008,0,0,0-7,7v5c0,8.2,3.657,34,10,34S42,36.2,42,28V23a7.008,7.008,0,0,0-7-7H33.131A3.636,3.636,0,0,1,36.741,13.016Zm7.445-1.435a3.853,3.853,0,0,1,.676,1.251c-1.086.379-5.732-.936-10.677-2.983a9.656,9.656,0,0,1,5.636-1.166A6.559,6.559,0,0,1,44.186,11.581ZM38,4c1.462,0,2.447.347,2.926,1.031a2.916,2.916,0,0,1,.358,1.954,7.931,7.931,0,0,0-1.157-.278,11.619,11.619,0,0,0-6.859,1.366C33.71,6.316,34.88,4,38,4ZM23.07,5.037C23.548,4.349,24.534,4,26,4c3.12,0,4.291,2.317,4.732,4.074a11.636,11.636,0,0,0-6.859-1.367,7.889,7.889,0,0,0-1.161.279A2.874,2.874,0,0,1,23.07,5.037Zm-3.932,7.8a3.853,3.853,0,0,1,.676-1.251,6.559,6.559,0,0,1,4.355-2.9,9.662,9.662,0,0,1,5.642,1.166C24.866,11.9,20.225,13.213,19.138,12.832ZM35,18a5.006,5.006,0,0,1,5,5v5c0,1.635-.072,3.313-.2,5H30v2h9.628a92.039,92.039,0,0,1-2.8,15H32v2h4.238c-1.489,4.791-3.11,8-4.238,8-1.867,0-5.083-8.774-6.814-19H32V39H24.868A76.762,76.762,0,0,1,24,28V26h6V24H24V23a5.006,5.006,0,0,1,5-5Zm-3-4.443a5.277,5.277,0,0,0-1.738-1.721q.832-.347,1.738-.745.9.4,1.738.745A5.277,5.277,0,0,0,32,13.557Z" style="fill: orange;"></path>
    <path d="M2,40H21V38H17.105L18,29a5,5,0,0,0-3.225-4.659c5.568-2.823,5.3-4.235,5.195-4.748C19.682,18.189,17.792,18,15.982,18a5.373,5.373,0,0,0-4.991,2.967A5.372,5.372,0,0,0,6,18c-1.81,0-3.7.189-3.987,1.593-.106.513-.374,1.926,5.2,4.752A5.047,5.047,0,0,0,4.005,29.1l.89,8.9H2ZM15.982,20a9.148,9.148,0,0,1,1.755.128A25.918,25.918,0,0,1,12.2,23.359C12.553,21.9,13.494,20,15.982,20ZM6,20c2.47,0,3.415,1.9,3.776,3.355a25.874,25.874,0,0,1-5.53-3.227A9.126,9.126,0,0,1,6,20Zm0,9a3,3,0,0,1,3-3h4a2.992,2.992,0,0,1,3,2.9L16,29H11v2h4.8l-.7,7H6.9Z" style="fill: orange;"></path>
    <rect x="8" y="33" width="4" height="2" style="fill: orange;"></rect>
    <rect x="13" y="43" width="2" height="2" style="fill: orange;"></rect>
    <rect x="5" y="46" width="2" height="2" style="fill: orange;"></rect>
    <path d="M61.97,17.593C61.682,16.189,59.792,16,57.982,16a5.373,5.373,0,0,0-4.991,2.967A5.372,5.372,0,0,0,48,16c-1.81,0-3.7.189-3.987,1.593-.106.513-.374,1.926,5.2,4.752A5.047,5.047,0,0,0,46.005,27.1L46.9,36H43v2H62V36h-2.9l.9-9a5,5,0,0,0-3.225-4.659C62.343,19.518,62.075,18.106,61.97,17.593ZM48,18c2.47,0,3.415,1.9,3.776,3.355a25.874,25.874,0,0,1-5.53-3.227A9.126,9.126,0,0,1,48,18Zm10.005,8.9L57.1,36H48.9l-.7-7H52V27H48a3,3,0,0,1,3-3h4A2.992,2.992,0,0,1,58.005,26.9ZM54.2,21.359C54.553,19.9,55.494,18,57.982,18a9.148,9.148,0,0,1,1.755.128A25.918,25.918,0,0,1,54.2,21.359Z" style="fill: orange;"></path>
    <rect x="55" y="47" width="2" height="2" style="fill: orange;"></rect>
    <rect x="45" y="43" width="2" height="2" style="fill: orange;"></rect>
    <rect x="58" y="40" width="2" height="2" style="fill: orange;"></rect>
    <rect x="53" y="31" width="2" height="2" style="fill: orange;"></rect>
  </g>
</svg>